# xmcd
#
# Track frame offsets: 
#        150
#        12759
#        23744
#        37317
#        48225
#        61312
#        74280
#        84272
#        97427
#        106841
#        119985
#        131697
#
# Disc length: 1923 seconds
#
# Revision: 0
# Processed by: cddbd v1.5.2PL0 Copyright (c) Steve Scherf et al.
# Submitted via: ExactAudioCopy v0.95b4
#
DISCID=a807810c
DTITLE=Jackie Wilson - Whispers
DYEAR=1966
DGENRE=R&B
TTITLE0=I Don't Want To Lose You
TTITLE1=My Heart Is Calling
TTITLE2=Who Am I
TTITLE3=Whispers (Getting Louder)
TTITLE4=The Fairest Of Them All
TTITLE5=(Too Much) Sweet Loving
TTITLE6=I Can Do Better
TTITLE7=Just Be Sincere
TTITLE8=Only Your Love Can Save Me
TTITLE9=To Make A Big Man Cry
TTITLE10=I've Gotta Talk To You
TTITLE11=Tears Will Tell It All
EXTD=
EXTT0=
EXTT1=
EXTT2=
EXTT3=
EXTT4=
EXTT5=
EXTT6=
EXTT7=
EXTT8=
EXTT9=
EXTT10=
EXTT11=
PLAYORDER=
